<svg xmlns="http://www.w3.org/2000/svg" width="1200" height="800" viewBox="0 0 1200 800">
  <defs>
    <linearGradient id="bg" x1="0" y1="0" x2="1" y2="1">
      <stop offset="0%" stop-color="#E9F7EC"/>
      <stop offset="100%" stop-color="#D1F0D8"/>
    </linearGradient>
    <linearGradient id="accent" x1="0" y1="0" x2="1" y2="1">
      <stop offset="0%" stop-color="#2E7D32"/>
      <stop offset="100%" stop-color="#43A047"/>
    </linearGradient>
  </defs>
  <rect width="1200" height="800" fill="url(#bg)"/>
  <rect x="90" y="80" width="1020" height="110" rx="24" fill="rgba(255,255,255,0.9)"/>
  <text x="130" y="140" font-family="Poppins, Arial, sans-serif" font-size="52" fill="#1A1A2E">Family Room</text>
  <text x="130" y="175" font-family="Poppins, Arial, sans-serif" font-size="24" fill="#4A4A6A">Spacious • Kid friendly</text>
  <rect x="120" y="260" width="960" height="360" rx="40" fill="rgba(0,0,0,0.08)"/>
  <rect x="160" y="300" width="880" height="240" rx="32" fill="url(#accent)" opacity="0.95"/>
  <rect x="190" y="330" width="260" height="90" rx="18" fill="rgba(255,255,255,0.95)"/>
  <rect x="470" y="330" width="260" height="90" rx="18" fill="rgba(255,255,255,0.95)"/>
  <rect x="750" y="330" width="260" height="90" rx="18" fill="rgba(255,255,255,0.95)"/>
  <rect x="220" y="570" width="760" height="24" rx="12" fill="rgba(0,0,0,0.15)"/>
  <circle cx="200" cy="700" r="12" fill="#2E7D32"/>
  <circle cx="240" cy="700" r="12" fill="#43A047"/>
  <circle cx="280" cy="700" r="12" fill="#81C784"/>
</svg>
