<svg xmlns="http://www.w3.org/2000/svg" width="1200" height="800" viewBox="0 0 1200 800">
  <defs>
    <linearGradient id="bg" x1="0" y1="0" x2="1" y2="1">
      <stop offset="0%" stop-color="#FFF7D6"/>
      <stop offset="100%" stop-color="#F8E3A3"/>
    </linearGradient>
    <linearGradient id="accent" x1="0" y1="0" x2="1" y2="1">
      <stop offset="0%" stop-color="#B8860B"/>
      <stop offset="100%" stop-color="#E0B84D"/>
    </linearGradient>
  </defs>
  <rect width="1200" height="800" fill="url(#bg)"/>
  <rect x="90" y="80" width="1020" height="110" rx="24" fill="rgba(255,255,255,0.9)"/>
  <text x="130" y="140" font-family="Poppins, Arial, sans-serif" font-size="52" fill="#1A1A2E">VIP Suite</text>
  <text x="130" y="175" font-family="Poppins, Arial, sans-serif" font-size="24" fill="#4A4A6A">Ocean view • Butler service</text>
  <rect x="120" y="260" width="960" height="360" rx="40" fill="rgba(0,0,0,0.08)"/>
  <rect x="160" y="300" width="880" height="240" rx="32" fill="url(#accent)" opacity="0.95"/>
  <rect x="200" y="330" width="280" height="90" rx="18" fill="rgba(255,255,255,0.95)"/>
  <rect x="520" y="330" width="280" height="90" rx="18" fill="rgba(255,255,255,0.95)"/>
  <rect x="840" y="320" width="160" height="220" rx="22" fill="rgba(255,255,255,0.85)"/>
  <rect x="220" y="570" width="760" height="24" rx="12" fill="rgba(0,0,0,0.15)"/>
  <circle cx="200" cy="700" r="12" fill="#B8860B"/>
  <circle cx="240" cy="700" r="12" fill="#E0B84D"/>
  <circle cx="280" cy="700" r="12" fill="#F1D47A"/>
</svg>
